<?xml version="1.0" encoding="UTF-8" standalone="no"?>
<!-- Created with Inkscape (http://www.inkscape.org/) -->

<svg
   width="265.5307"
   height="114.94129"
   viewBox="0 0 265.5307 114.9413"
   version="1.1"
   id="svg5"
   inkscape:version="1.1.2 (b8e25be833, 2022-02-05)"
   sodipodi:docname="masu.svg"
   xmlns:inkscape="http://www.inkscape.org/namespaces/inkscape"
   xmlns:sodipodi="http://sodipodi.sourceforge.net/DTD/sodipodi-0.dtd"
   xmlns="http://www.w3.org/2000/svg"
   xmlns:svg="http://www.w3.org/2000/svg">
  <sodipodi:namedview
     id="namedview7"
     pagecolor="#ffffff"
     bordercolor="#666666"
     borderopacity="1.0"
     inkscape:pageshadow="2"
     inkscape:pageopacity="0.0"
     inkscape:pagecheckerboard="0"
     inkscape:document-units="px"
     showgrid="false"
     units="px"
     fit-margin-top="0"
     fit-margin-left="0"
     fit-margin-right="0"
     fit-margin-bottom="0"
     inkscape:zoom="2.0737236"
     inkscape:cx="130.92391"
     inkscape:cy="81.737028"
     inkscape:window-width="958"
     inkscape:window-height="1000"
     inkscape:window-x="953"
     inkscape:window-y="0"
     inkscape:window-maximized="0"
     inkscape:current-layer="layer1" />
  <defs
     id="defs2" />
  <g
     inkscape:label="Layer 1"
     inkscape:groupmode="layer"
     id="layer1"
     transform="translate(-4.0774815,-104.36206)">
    <path
       style="fill:#000000;stroke-width:0.264583"
       d="m 58.602622,219.1862 c -4.746165,-0.26462 -10.939531,-0.90434 -16.801041,-1.7354 -19.188303,-2.72056 -32.5153356,-6.88638 -36.9980076,-11.56499 -0.85588,-0.8933 -0.87029,-0.94434 -0.47972,-1.69962 1.16351,-2.24998 4.631717,-6.43532 11.6829836,-14.0987 4.647478,-5.05092 7.975123,-8.85771 8.341902,-9.54304 0.373315,-0.69755 -2.515024,-4.65786 -8.396278,-11.51246 -5.00877,-5.83772 -7.7934906,-9.45899 -9.9183676,-12.89791 l -0.97478,-1.57759 2.033113,-2.22176 c 3.6611286,-4.00082 6.3058036,-6.10154 12.3122256,-9.77985 10.704997,-6.55569 22.420244,-11.45234 33.751178,-14.10706 5.144463,-1.20529 9.769985,-2.00078 21.586374,-3.71241 18.111152,-2.62344 17.04517,-2.38613 46.169786,-10.27799 33.91265,-9.18926 33.27625,-9.02574 37.75308,-9.70053 1.51975,-0.22907 4.48674,-0.39192 7.15707,-0.39283 l 4.56119,-0.002 0.069,11.17596 0.069,11.17596 4.23334,0.71569 c 7.57287,1.28028 10.24624,1.85171 14.81666,3.16702 5.54427,1.59558 19.03193,6.0993 23.17968,7.74002 1.68924,0.66821 3.30952,1.21493 3.60065,1.21493 0.69607,0 5.31498,-1.72155 9.24335,-3.44516 5.13373,-2.25248 10.13912,-4.93985 12.70985,-6.82385 1.32799,-0.97324 3.82449,-2.80785 5.54779,-4.07692 1.72329,-1.26906 3.85339,-2.66369 4.73356,-3.09917 0.88017,-0.43549 3.49955,-2.1151 5.82083,-3.73247 5.51098,-3.8398 7.76958,-5.23651 8.80166,-5.44293 0.8366,-0.16732 0.84158,-0.16197 0.67461,0.72441 -0.85112,4.51798 -5.01706,16.84905 -7.45266,22.05963 -4.90677,10.49731 -5.36399,14.80767 -2.58507,24.37018 2.05655,7.07675 4.4178,12.13469 7.64699,16.38031 1.21946,1.60329 2.4219,3.31093 2.67209,3.79476 0.54942,1.06246 4.76338,12.96306 5.18975,14.6563 0.5973,2.37211 0.70919,2.3921 -6.36122,-1.13667 -5.96354,-2.97635 -39.31234,-17.87726 -40.67968,-18.1765 -0.3936,-0.0861 -0.59531,-0.006 -0.59531,0.23629 0,0.74205 -2.08059,4.47781 -3.3986,6.10229 -3.11635,3.84096 -6.8004,6.32085 -17.23889,11.60422 -4.00183,2.02549 -7.83259,4.09444 -8.51282,4.59768 -0.68023,0.50323 -3.19688,3.09323 -5.59257,5.75555 -2.39568,2.66232 -5.3256,5.67403 -6.51091,6.69267 -3.02932,2.60336 -6.96746,5.16369 -9.96347,6.47764 l -2.55558,1.12079 -2.115,-2.07942 c -1.93413,-1.9016 -5.32518,-5.75383 -6.33845,-7.20049 -0.38032,-0.54297 -0.50952,-0.56871 -1.57165,-0.31313 -4.01002,0.96497 -33.67884,6.76959 -37.27288,7.29234 -9.65631,1.40449 -22.701118,2.54622 -34.528128,3.02204 -9.259503,0.37252 -23.248886,0.51168 -27.516665,0.27374 z M 80.17051,208.61106 c 3.271826,-0.28954 8.150102,-0.52766 10.840613,-0.52917 10.763857,-0.006 35.742157,-3.71978 55.168577,-8.20244 17.27795,-3.9869 28.63091,-7.65591 42.99479,-13.8949 8.11368,-3.5242 11.911,-5.65168 15.6606,-8.77399 2.76888,-2.30566 3.99949,-3.72604 7.64065,-8.8189 1.71667,-2.4011 3.39718,-4.69155 3.73446,-5.08991 l 0.61324,-0.72428 5.29167,1.73105 c 9.66653,3.16219 21.62351,6.49261 21.99092,6.1252 0.0796,-0.0796 -1.04953,-2.38735 -2.50921,-5.1283 -3.29674,-6.19055 -4.00444,-8.20336 -4.00122,-11.3802 0.002,-1.94888 0.14651,-2.75268 0.87479,-4.86507 0.47984,-1.39176 1.36571,-3.38605 1.96861,-4.43177 0.6029,-1.04572 1.03861,-1.9013 0.96825,-1.9013 -0.68013,0 -22.432,7.93883 -25.39776,9.26948 l -1.74036,0.78084 -6.79263,-3.26736 c -7.56322,-3.63802 -8.26059,-3.9429 -12.37994,-5.41235 -14.62906,-5.21848 -35.45404,-9.22178 -56.58977,-10.87856 -16.04574,-1.25779 -38.13609,-0.98104 -52.519794,0.65797 -16.819197,1.91653 -30.228557,5.21891 -44.185415,10.88173 -5.271622,2.1389 -11.962076,5.84816 -16.727663,9.27402 -3.235624,2.32601 -3.163936,1.99904 -1.037339,4.73125 1.006654,1.29334 3.230308,3.89933 4.941453,5.7911 4.440184,4.90888 9.681056,10.96011 10.96356,12.65878 l 1.098293,1.45468 -0.580458,1.14535 c -1.075288,2.12174 -3.64104,5.61631 -7.542911,10.27348 -2.133605,2.54661 -4.624046,5.58271 -5.534316,6.74688 -1.64391,2.10243 -3.882602,5.46641 -3.735641,5.61337 0.254223,0.25423 12.924329,3.64784 15.121249,4.05014 5.811501,1.0642 16.274986,2.04957 25.033871,2.35749 9.153887,0.32181 10.137388,0.30713 16.368831,-0.24431 z m -1.535766,-13.67117 c -1.351603,-2.56074 -2.423166,-4.68918 -2.38125,-4.72989 0.292169,-0.28371 22.793993,-4.63035 22.984475,-4.43987 0.464119,0.46412 4.454081,9.47189 4.268501,9.63661 -0.1041,0.0924 -5.011298,1.02516 -10.904891,2.0728 -5.893594,1.04764 -10.894219,1.95237 -11.1125,2.01051 -0.283223,0.0754 -1.100606,-1.22757 -2.854335,-4.55016 z m 7.431597,-12.98856 -3.757112,-1.20664 -3.755358,-15.2385 c -2.065446,-8.38117 -3.815821,-15.4011 -3.889719,-15.59985 -0.109177,-0.29363 0.183076,-0.32601 1.559346,-0.17275 2.036934,0.22682 6.130065,0.91352 6.26814,1.0516 0.05429,0.0543 1.693585,6.68709 3.642881,14.73957 1.949299,8.05247 3.712282,15.32547 3.917741,16.16221 0.267793,1.0906 0.288285,1.51423 0.07238,1.49618 -0.165653,-0.0138 -1.991886,-0.56816 -4.058298,-1.23182 z M 55.480393,170.60519 c -0.101785,-0.10178 -0.185063,-1.35584 -0.185063,-2.7868 v -2.60173 h 2.919672 2.919674 l -0.0754,2.71198 -0.0754,2.71198 -2.659208,0.0748 c -1.462566,0.0412 -2.742488,-0.008 -2.844271,-0.11025 z M 160.07033,120.63437 v -4.10104 h -0.61287 c -1.70327,0 -9.25944,1.65186 -13.54234,2.9605 -3.48021,1.06338 -7.80521,2.90138 -7.80521,3.31699 0,0.20951 17.43885,1.8116 20.57135,1.88988 l 1.38907,0.0347 z"
       id="path45" />
  </g>
</svg>
